<?xml version="1.0" encoding="utf-8"?>
<!-- Generator: Adobe Illustrator 23.1.0, SVG Export Plug-In . SVG Version: 6.00 Build 0)  -->
<svg version="1.1" id="Layer_1" xmlns="http://www.w3.org/2000/svg" xmlns:xlink="http://www.w3.org/1999/xlink" x="0px" y="0px"
	 width="360px" height="260px" viewBox="0 0 360 260" style="enable-background:new 0 0 360 260;" xml:space="preserve">
<style type="text/css">
	.st0{fill:url(#SVGID_1_);}
	.st1{fill:#16417C;}
	.st2{fill:#FFFFFF;}
	.st3{fill:#13A9E1;}
	.st4{fill:#123866;}
	.st5{fill:#214F87;}
	.st6{fill:#D5DBE2;}
	.st7{fill:#2B588E;}
	.st8{fill:#262626;}
	.st9{fill:#EDEDED;}
	.st10{fill:#E5EAF1;}
	.st11{fill:#00AAE3;}
	.st12{opacity:0.32;fill:url(#SVGID_2_);enable-background:new    ;}
	.st13{fill:#36C8EA;}
	.st14{fill:#F94E73;}
	.st15{fill:url(#SVGID_3_);}
	.st16{fill:url(#SVGID_4_);}
	.st17{fill-rule:evenodd;clip-rule:evenodd;fill:#03A8E1;}
	.st18{fill-rule:evenodd;clip-rule:evenodd;fill:#1A427C;}
	.st19{fill:#1A427C;}
	.st20{fill:url(#SVGID_5_);}
	.st21{fill:url(#SVGID_6_);}
	.st22{fill:url(#SVGID_7_);}
</style>
<g>
	<g>
		<g>
			
				<linearGradient id="SVGID_1_" gradientUnits="userSpaceOnUse" x1="62.8758" y1="152.699" x2="206.8519" y2="254.662" gradientTransform="matrix(1 0 1.610282e-02 1 103.4081 -62.6)">
				<stop  offset="0.5" style="stop-color:#89D4F0"/>
				<stop  offset="1" style="stop-color:#89D4F0;stop-opacity:0"/>
			</linearGradient>
			<path class="st0" d="M131.3,144.2l120.4-61.7c2.6-1.5,5.8-1.5,8.4,0.1l98.8,42.7l-8.3,14.4L256,99.4L135.8,161
				c-1.2,0.6-2.9,0.9-4.4,0.9L131.3,144.2z"/>
		</g>
		<path class="st1" d="M261.5,101.7c0,0,24.1-35.6,23.9-48.4s-10.7-23-23.4-23h-7l1,69.1L261.5,101.7z"/>
		
			<ellipse transform="matrix(0.7059 -0.7083 0.7083 0.7059 37.2913 196.4387)" class="st2" cx="255.2" cy="53.3" rx="10.3" ry="10.4"/>
		<path class="st3" d="M254.9,30.3c-12.8,0-22.8,10.3-22.7,23.1s23.7,46,23.7,46s22.5-33.4,22.3-46
			C278.1,40.6,267.7,30.3,254.9,30.3z M255.5,62c-4.7,0-8.7-3.8-8.8-8.6c0-4.7,3.7-8.6,8.5-8.6c4.7,0,8.7,3.8,8.8,8.6
			C264.1,58.1,260.2,62,255.5,62z"/>
	</g>
	<g>
		<g>
			<path class="st1" d="M178.8,163.5c0,5-3,10.8-6.8,13s-6.8-0.1-6.8-5.1s3-10.8,6.8-13C175.7,156.2,178.8,158.5,178.8,163.5z"/>
			<polygon class="st1" points="172.7,179.8 167.7,177 176.5,158.1 181.2,160.7 			"/>
			<path class="st1" d="M162.8,172.9c0,5-3,10.8-6.8,13s-6.8-0.1-6.8-5.1s3-10.8,6.8-13C159.7,165.6,162.8,167.9,162.8,172.9z"/>
			<polygon class="st1" points="156.7,189.1 151.7,186.4 160.5,167.5 165.3,170.1 			"/>
			<path class="st1" d="M116.3,199.5c0,5-3,10.8-6.8,13s-6.8-0.1-6.8-5.1s3-10.8,6.8-13C113.3,192.1,116.3,194.4,116.3,199.5z"/>
			<polygon class="st1" points="110.2,215.7 105.3,212.9 114.1,194 118.8,196.7 			"/>
			<path class="st1" d="M102.1,207.7c0,5-3,10.8-6.8,13s-6.8-0.1-6.8-5.1s3-10.8,6.8-13C99.1,200.3,102.1,202.7,102.1,207.7z"/>
			<polygon class="st1" points="96,223.9 91.1,221.1 99.9,202.2 104.6,204.9 			"/>
			<path class="st1" d="M63.4,230.3c0,5-3,10.8-6.8,13s-6.8-0.1-6.8-5.1s3-10.8,6.8-13S63.4,225.3,63.4,230.3z"/>
			<polygon class="st1" points="57.3,246.6 52.4,243.8 61.2,224.9 65.9,227.5 			"/>
		</g>
		<polygon class="st4" points="115.1,194.5 122.6,198.8 122.6,206.5 115.1,202.1 		"/>
		<path class="st4" d="M183.9,166.4c0,5-3,10.8-6.8,13s-6.8-0.1-6.8-5.1s3-10.8,6.8-13C180.8,159.1,183.9,161.4,183.9,166.4z"/>
		<path class="st5" d="M181.5,167.9c0,3.3-2,7-4.4,8.4s-4.4-0.1-4.4-3.3c0-3.3,2-7,4.4-8.4S181.5,164.7,181.5,167.9z"/>
		<path class="st2" d="M180.2,168.6c0,2.3-1.4,5-3.2,6.1c-1.7,1-3.2-0.1-3.2-2.4c0-2.3,1.4-5,3.2-6.1
			C178.8,165.2,180.2,166.3,180.2,168.6z"/>
		<path class="st6" d="M178.6,169.6c0,1.1-0.7,2.4-1.5,2.9s-1.5,0-1.5-1.2c0-1.1,0.7-2.4,1.5-2.9
			C177.9,167.9,178.6,168.5,178.6,169.6z"/>
		<path class="st6" d="M177.4,167.1c0,0.2-0.1,0.5-0.3,0.6s-0.3,0-0.3-0.2s0.1-0.5,0.3-0.6C177.2,166.8,177.4,166.9,177.4,167.1z"/>
		<path class="st6" d="M179.4,167.1c0,0.2-0.1,0.5-0.3,0.6s-0.3,0-0.3-0.2s0.1-0.5,0.3-0.6C179.2,166.8,179.4,166.9,179.4,167.1z"/>
		<path class="st6" d="M175.5,169.3c0,0.2-0.1,0.5-0.3,0.6s-0.3,0-0.3-0.2s0.1-0.5,0.3-0.6S175.5,169.1,175.5,169.3z"/>
		<path class="st6" d="M179.4,171.3c0,0.2-0.1,0.5-0.3,0.6s-0.3,0-0.3-0.2s0.1-0.5,0.3-0.6C179.2,171,179.4,171.1,179.4,171.3z"/>
		<path class="st6" d="M175.5,173.5c0,0.2-0.1,0.5-0.3,0.6s-0.3,0-0.3-0.2s0.1-0.5,0.3-0.6S175.5,173.3,175.5,173.5z"/>
		<path class="st6" d="M179.8,169c0,0.2-0.1,0.5-0.3,0.6s-0.3,0-0.3-0.2s0.1-0.5,0.3-0.6S179.8,168.8,179.8,169z"/>
		<path class="st6" d="M175,171.9c0,0.2-0.1,0.5-0.3,0.6s-0.3,0-0.3-0.2s0.1-0.5,0.3-0.6C174.8,171.5,175,171.6,175,171.9z"/>
		<path class="st6" d="M177.4,173.5c0,0.2-0.1,0.5-0.3,0.6s-0.3,0-0.3-0.2s0.1-0.5,0.3-0.6C177.2,173.2,177.4,173.3,177.4,173.5z"/>
		<path class="st4" d="M167.9,175.7c0,5-3,10.8-6.8,13s-6.8-0.1-6.8-5.1s3-10.8,6.8-13C164.8,168.4,167.9,170.7,167.9,175.7z"/>
		<path class="st5" d="M165.5,177.3c0,3.3-2,7-4.4,8.4s-4.4-0.1-4.4-3.3c0-3.3,2-7,4.4-8.4C163.5,172.5,165.5,174,165.5,177.3z"/>
		<path class="st2" d="M164.3,178c0,2.3-1.4,5-3.2,6.1c-1.7,1-3.2-0.1-3.2-2.4s1.4-5,3.2-6.1C162.8,174.6,164.3,175.7,164.3,178z"/>
		<path class="st6" d="M162.6,179c0,1.1-0.7,2.4-1.5,2.9s-1.5,0-1.5-1.2c0-1.1,0.7-2.4,1.5-2.9C161.9,177.3,162.6,177.8,162.6,179z"
			/>
		<path class="st6" d="M161.4,176.5c0,0.2-0.1,0.5-0.3,0.6s-0.3,0-0.3-0.2s0.1-0.5,0.3-0.6C161.2,176.2,161.4,176.3,161.4,176.5z"/>
		<path class="st6" d="M163.4,176.5c0,0.2-0.1,0.5-0.3,0.6s-0.3,0-0.3-0.2s0.1-0.5,0.3-0.6C163.2,176.2,163.4,176.3,163.4,176.5z"/>
		<path class="st6" d="M159.6,178.7c0,0.2-0.1,0.5-0.3,0.6s-0.3,0-0.3-0.2s0.1-0.5,0.3-0.6S159.6,178.5,159.6,178.7z"/>
		<path class="st6" d="M163.4,180.6c0,0.2-0.1,0.5-0.3,0.6s-0.3,0-0.3-0.2s0.1-0.5,0.3-0.6C163.2,180.3,163.4,180.4,163.4,180.6z"/>
		<path class="st6" d="M159.6,182.8c0,0.2-0.1,0.5-0.3,0.6s-0.3,0-0.3-0.2s0.1-0.5,0.3-0.6C159.4,182.5,159.6,182.6,159.6,182.8z"/>
		<path class="st6" d="M163.8,178.4c0,0.2-0.1,0.5-0.3,0.6s-0.3,0-0.3-0.2s0.1-0.5,0.3-0.6C163.7,178.1,163.8,178.2,163.8,178.4z"/>
		<path class="st6" d="M159,181.2c0,0.2-0.1,0.5-0.3,0.6s-0.3,0-0.3-0.2s0.1-0.5,0.3-0.6S159,181,159,181.2z"/>
		<path class="st6" d="M161.4,182.8c0,0.2-0.1,0.5-0.3,0.6s-0.3,0-0.3-0.2s0.1-0.5,0.3-0.6C161.2,182.5,161.4,182.6,161.4,182.8z"/>
		<g>
			<polygon class="st7" points="109,192 139.1,174.1 152.7,182 122.6,199.9 			"/>
			<polygon class="st1" points="122.6,199.8 122.6,206.5 152.7,188.7 152.7,182 			"/>
			<polygon class="st5" points="122.6,202.9 122.6,203.7 151.5,186.7 151.5,186 			"/>
		</g>
		<path class="st4" d="M121.4,202.3c0,5-3,10.8-6.8,13s-6.8-0.1-6.8-5.1s3-10.8,6.8-13S121.4,197.3,121.4,202.3z"/>
		<path class="st5" d="M119,203.9c0,3.3-2,7-4.4,8.4s-4.4-0.1-4.4-3.3c0-3.3,2-7,4.4-8.4C117.1,199.1,119,200.6,119,203.9z"/>
		<path class="st2" d="M117.8,204.6c0,2.3-1.4,5-3.2,6.1c-1.7,1-3.2-0.1-3.2-2.4c0-2.3,1.4-5,3.2-6.1
			C116.4,201.2,117.8,202.2,117.8,204.6z"/>
		<path class="st6" d="M116.2,205.5c0,1.1-0.7,2.4-1.5,2.9s-1.5,0-1.5-1.2c0-1.1,0.7-2.4,1.5-2.9
			C115.5,203.9,116.2,204.4,116.2,205.5z"/>
		<path class="st6" d="M114.9,203.1c0,0.2-0.1,0.5-0.3,0.6c-0.2,0.1-0.3,0-0.3-0.2s0.1-0.5,0.3-0.6S114.9,202.9,114.9,203.1z"/>
		<path class="st6" d="M116.9,203.1c0,0.2-0.1,0.5-0.3,0.6c-0.2,0.1-0.3,0-0.3-0.2s0.1-0.5,0.3-0.6S116.9,202.9,116.9,203.1z"/>
		<path class="st6" d="M113.1,205.3c0,0.2-0.1,0.5-0.3,0.6c-0.2,0.1-0.3,0-0.3-0.2s0.1-0.5,0.3-0.6S113.1,205.1,113.1,205.3z"/>
		<path class="st6" d="M116.9,207.2c0,0.2-0.1,0.5-0.3,0.6c-0.2,0.1-0.3,0-0.3-0.2s0.1-0.5,0.3-0.6S116.9,207,116.9,207.2z"/>
		<path class="st6" d="M113.1,209.4c0,0.2-0.1,0.5-0.3,0.6c-0.2,0.1-0.3,0-0.3-0.2s0.1-0.5,0.3-0.6
			C113,209.1,113.1,209.2,113.1,209.4z"/>
		<path class="st6" d="M117.4,205c0,0.2-0.1,0.5-0.3,0.6c-0.2,0.1-0.3,0-0.3-0.2s0.1-0.5,0.3-0.6C117.2,204.7,117.4,204.8,117.4,205
			z"/>
		<path class="st6" d="M112.5,207.8c0,0.2-0.1,0.5-0.3,0.6s-0.3,0-0.3-0.2s0.1-0.5,0.3-0.6S112.5,207.6,112.5,207.8z"/>
		<path class="st6" d="M114.9,209.4c0,0.2-0.1,0.5-0.3,0.6c-0.2,0.1-0.3,0-0.3-0.2s0.1-0.5,0.3-0.6
			C114.8,209.1,114.9,209.2,114.9,209.4z"/>
		<path class="st4" d="M107.3,210.5c0,5-3,10.8-6.8,13s-6.8-0.1-6.8-5.1s3-10.8,6.8-13C104.2,203.2,107.3,205.5,107.3,210.5z"/>
		<path class="st5" d="M104.9,212.1c0,3.3-2,7-4.4,8.4s-4.4-0.1-4.4-3.3c0-3.3,2-7,4.4-8.4C102.9,207.3,104.9,208.8,104.9,212.1z"/>
		
			<ellipse transform="matrix(0.3916 -0.9201 0.9201 0.3916 -136.4087 223.0166)" class="st2" cx="100.4" cy="214.7" rx="4.9" ry="2.8"/>
		<path class="st6" d="M102,213.7c0,1.1-0.7,2.4-1.5,2.9s-1.5,0-1.5-1.2s0.7-2.4,1.5-2.9C101.3,212.1,102,212.6,102,213.7z"/>
		<path class="st6" d="M100.7,211.3c0,0.2-0.1,0.5-0.3,0.6s-0.3,0-0.3-0.2s0.1-0.5,0.3-0.6S100.7,211.1,100.7,211.3z"/>
		<path class="st6" d="M102.7,211.3c0,0.2-0.1,0.5-0.3,0.6c-0.2,0.1-0.3,0-0.3-0.2s0.1-0.5,0.3-0.6S102.7,211.1,102.7,211.3z"/>
		<path class="st6" d="M98.9,213.5c0,0.2-0.1,0.5-0.3,0.6c-0.2,0.1-0.3,0-0.3-0.2s0.1-0.5,0.3-0.6S98.9,213.3,98.9,213.5z"/>
		<path class="st6" d="M102.7,215.4c0,0.2-0.1,0.5-0.3,0.6c-0.2,0.1-0.3,0-0.3-0.2s0.1-0.5,0.3-0.6
			C102.6,215.1,102.7,215.2,102.7,215.4z"/>
		<path class="st6" d="M98.9,217.6c0,0.2-0.1,0.5-0.3,0.6c-0.2,0.1-0.3,0-0.3-0.2s0.1-0.5,0.3-0.6S98.9,217.4,98.9,217.6z"/>
		<path class="st6" d="M103.2,213.2c0,0.2-0.1,0.5-0.3,0.6c-0.2,0.1-0.3,0-0.3-0.2s0.1-0.5,0.3-0.6S103.2,213,103.2,213.2z"/>
		<path class="st6" d="M98.3,216c0,0.2-0.1,0.5-0.3,0.6c-0.2,0.1-0.3,0-0.3-0.2s0.1-0.5,0.3-0.6C98.2,215.7,98.3,215.8,98.3,216z"/>
		<path class="st6" d="M100.7,217.6c0,0.2-0.1,0.5-0.3,0.6c-0.2,0.1-0.3,0-0.3-0.2s0.1-0.5,0.3-0.6S100.7,217.4,100.7,217.6z"/>
		<path class="st8" d="M68.9,230.9l-5.2-3.2l-3.5-2.8c0,0,2.8-1,3.1-1.2C63.5,223.5,70.3,226,68.9,230.9z"/>
		<g>
			<polygon class="st7" points="54.4,223.3 78.7,209.4 92.4,217.3 68,231.3 			"/>
			<polygon class="st1" points="92.4,217.3 67.8,231.3 67.8,238 92.4,224 			"/>
			<polygon class="st5" points="83.5,225.5 70.2,233.2 70.2,233.9 83.5,226.3 			"/>
		</g>
		<polygon class="st9" points="81.2,163 183.1,104.3 147.4,83.6 45.5,142.4 		"/>
		<polygon class="st6" points="50.8,143.4 149.1,86.8 147.1,85.8 48.8,142.4 		"/>
		<polygon class="st6" points="81.4,161 179.7,104.4 177.6,103.4 79.4,160 		"/>
		<g>
			<polygon class="st10" points="45.5,142.4 45.5,187.1 45.5,190.6 45.5,198.6 81.2,219.2 81.2,211.2 81.2,207.7 81.2,163 			"/>
			<polygon class="st2" points="139.4,138.5 111.8,154.5 107.6,159.9 139.4,141.6 			"/>
			<polygon class="st2" points="139.4,133.2 118.5,145.5 114.3,150.9 139.4,136.2 			"/>
			<polygon class="st6" points="81.2,162.9 81.2,207.7 81.2,214 81.2,219.2 183.1,160.4 183.1,155.2 183.1,148.9 183.1,104.1 			"/>
			<polygon class="st10" points="87.1,162.9 85.8,163.7 85.8,212.8 87.1,212.1 			"/>
			<polygon class="st10" points="93,159.5 91.7,160.2 91.7,209.4 93,208.6 			"/>
			<polygon class="st10" points="113.3,147.8 111.9,148.5 111.9,197.7 113.3,196.9 			"/>
			<polygon class="st10" points="119.2,144.3 117.9,145.1 117.9,194.3 119.2,193.5 			"/>
			<polygon class="st10" points="125.5,140.8 124.2,141.6 124.2,190.7 125.5,190 			"/>
			<polygon class="st10" points="131.4,137.4 130.1,138.2 130.1,187.3 131.4,186.6 			"/>
			<polygon class="st10" points="137.8,133.4 136.5,134.2 136.5,183.4 137.8,182.6 			"/>
			<polygon class="st10" points="143.7,130 142.4,130.8 142.4,180 143.7,179.2 			"/>
			<polygon class="st10" points="168,115.9 166.6,116.7 166.6,165.9 168,165.1 			"/>
			<polygon class="st10" points="173.9,112.5 172.6,113.3 172.6,162.5 173.9,161.7 			"/>
		</g>
		<path class="st4" d="M68.5,233.2c0,5-3,10.8-6.8,13s-6.8-0.1-6.8-5.1s3-10.8,6.8-13S68.5,228.2,68.5,233.2z"/>
		<path class="st5" d="M66.1,234.7c0,3.3-2,7-4.4,8.4s-4.4-0.1-4.4-3.3c0-3.3,2-7,4.4-8.4C64.2,230,66.1,231.5,66.1,234.7z"/>
		
			<ellipse transform="matrix(0.3915 -0.9202 0.9202 0.3915 -180.7916 201.2025)" class="st2" cx="61.7" cy="237.3" rx="4.9" ry="2.8"/>
		<path class="st6" d="M63.3,236.4c0,1.1-0.7,2.4-1.5,2.9s-1.5,0-1.5-1.2c0-1.1,0.7-2.4,1.5-2.9C62.6,234.8,63.3,235.3,63.3,236.4z"
			/>
		<path class="st6" d="M62,234c0,0.2-0.1,0.5-0.3,0.6s-0.3,0-0.3-0.2s0.1-0.5,0.3-0.6C61.9,233.6,62,233.7,62,234z"/>
		<path class="st6" d="M64,234c0,0.2-0.1,0.5-0.3,0.6s-0.3,0-0.3-0.2s0.1-0.5,0.3-0.6C63.9,233.6,64,233.7,64,234z"/>
		<path class="st6" d="M60.2,236.2c0,0.2-0.1,0.5-0.3,0.6s-0.3,0-0.3-0.2s0.1-0.5,0.3-0.6C60.1,235.8,60.2,235.9,60.2,236.2z"/>
		<path class="st6" d="M64,238.1c0,0.2-0.1,0.5-0.3,0.6s-0.3,0-0.3-0.2s0.1-0.5,0.3-0.6S64,237.9,64,238.1z"/>
		<path class="st6" d="M60.2,240.3c0,0.2-0.1,0.5-0.3,0.6s-0.3,0-0.3-0.2s0.1-0.5,0.3-0.6C60.1,240,60.2,240.1,60.2,240.3z"/>
		<path class="st6" d="M64.5,235.9c0,0.2-0.1,0.5-0.3,0.6c-0.2,0.1-0.3,0-0.3-0.2s0.1-0.5,0.3-0.6C64.3,235.5,64.5,235.6,64.5,235.9
			z"/>
		<path class="st6" d="M59.6,238.7c0,0.2-0.1,0.5-0.3,0.6s-0.3,0-0.3-0.2s0.1-0.5,0.3-0.6C59.5,238.3,59.6,238.4,59.6,238.7z"/>
		<path class="st6" d="M62,240.3c0,0.2-0.1,0.5-0.3,0.6s-0.3,0-0.3-0.2s0.1-0.5,0.3-0.6S62,240.1,62,240.3z"/>
		<g>
			<path class="st11" d="M6.8,192.5l-1.5,16.1l0.2,17.8l10.4-6l25.3,14.8l13.2-25.9L9.6,183.5C8,186.5,6.9,190.1,6.8,192.5z"/>
			<path class="st11" d="M14.5,177.7l-0.2,0.1c-1.8,0.9-3.4,3.1-4.7,5.7l44.7,25.8l3.4-6.6L14.5,177.7z"/>
			
				<linearGradient id="SVGID_2_" gradientUnits="userSpaceOnUse" x1="22.183" y1="86.7616" x2="45.8011" y2="45.8537" gradientTransform="matrix(1 0 0 -1 0 260)">
				<stop  offset="0" style="stop-color:#15417B;stop-opacity:0.33"/>
				<stop  offset="1" style="stop-color:#15417B;stop-opacity:0.6"/>
			</linearGradient>
			<path class="st12" d="M14.5,177.7l-0.2,0.1c-1.8,0.9-3.4,3.1-4.7,5.7l44.7,25.8l3.4-6.6L14.5,177.7z"/>
			<path class="st11" d="M75.7,183.6l-25.8,14.9c-3.9,2.1-7.3,10.3-7.6,14.7l-1.3,16V247l10.7-6.2c0.9-6.1,4.6-12.4,9-15
				s8.2-0.5,9,4.6l5.9-3.4L75.7,183.6L75.7,183.6z"/>
			<polygon class="st11" points="57.4,228.6 57.4,194.2 58.1,193.8 58.1,228.6 			"/>
			<g>
				<path class="st2" d="M60.7,226.8c-4,2.3-7.4,8.1-8.2,13.6l-0.8,0.5c0.9-6.1,4.6-12.4,9-15s8.2-0.5,9,4.5l-0.8,0.5
					C68.1,226.3,64.8,224.4,60.7,226.8z"/>
			</g>
		</g>
		<polygon class="st11" points="5.2,208.6 41,229.2 41,247 5.2,226.4 		"/>
		<path class="st13" d="M5.2,212.4l3.1,2c1,0.6,1.7,2.1,1.7,3.4v5c0,1.3-0.8,1.9-1.7,1.3l-3.1-2C5.2,222.1,5.2,212.4,5.2,212.4z"/>
		<path class="st13" d="M37.9,231.4l3.1,1.8v9.6l-3.1-1.8c-1-0.6-1.7-2-1.7-3.3v-5C36.2,231.4,37,230.8,37.9,231.4z"/>
		<path class="st2" d="M36.9,233.5c0,1.2,0.7,2.6,1.6,3.1c0.9,0.5,1.6,0,1.6-1.2s-0.7-2.6-1.6-3.1C37.7,231.7,36.9,232.3,36.9,233.5
			z"/>
		<path class="st2" d="M37.7,238.5c0,0.9,0.6,2,1.3,2.4s1.3,0,1.3-1c0-0.9-0.6-2-1.3-2.4C38.2,237.2,37.7,237.6,37.7,238.5z"/>
		<path class="st2" d="M5.8,215.4c0,1.2,0.7,2.6,1.6,3.1s1.6,0,1.6-1.2s-0.7-2.6-1.6-3.1C6.6,213.7,5.8,214.2,5.8,215.4z"/>
		<path class="st2" d="M6.6,220.5c0,0.9,0.6,2,1.3,2.4s1.3,0,1.3-1c0-0.9-0.6-2-1.3-2.4S6.6,219.5,6.6,220.5z"/>
		<path class="st6" d="M47.8,241.8c0,0,0,2.6,0,3.5c0,1.8-1.8,2.8-1.8,2.8l-0.5-4.1L47.8,241.8z"/>
		<g>
			<g>
				<polygon class="st10" points="41.1,247.3 41,251 34.8,247.4 34.9,243.7 				"/>
				<polygon class="st10" points="2.9,225.3 9.1,228.9 9.1,232.6 2.9,229 				"/>
				<polygon class="st1" points="34.9,243.7 34.8,247.4 9.1,232.6 9.1,228.9 				"/>
				<polygon class="st2" points="13.5,232.1 29.7,241.5 29.7,243.7 13.5,234.3 				"/>
			</g>
			<path class="st6" d="M41,247.4v3.6l4.6-2.6c0.5-0.3,1.2-1.1,1.2-1.7V244L41,247.4z"/>
			<g>
				<path class="st10" d="M47.8,241.8l-6.8,3.9L5.2,225v-1l-2.3,1.3l38.1,22l4.7-2.7c0.7-0.4,1.5-0.9,1.8-1.7L47.8,241.8z"/>
			</g>
		</g>
		<path class="st2" d="M31.2,243.5c0,0.7,0.4,1.5,1,1.8c0.5,0.3,1,0,1-0.7s-0.4-1.5-1-1.8C31.6,242.4,31.2,242.7,31.2,243.5z"/>
		<path class="st2" d="M10.2,231.3c0,0.7,0.4,1.5,1,1.8c0.5,0.3,1,0,1-0.7s-0.4-1.5-1-1.8C10.6,230.3,10.2,230.6,10.2,231.3z"/>
		<polygon class="st14" points="50,198.5 75.7,183.7 39.9,163 14.3,177.8 		"/>
		<g>
			<path class="st11" d="M40.4,158c-1.2,0.5-3,1.4-4.4,2.1c-5.1,2.5-13.6,6.8-16.5,9.8c-3.6,3.7-5.1,7.5-5.3,8l35.7,20.7
				c0,0,1.4-4,5.3-8c2.9-3,11.7-7.1,16.7-9.5c2.3-1.1,3.7-2.1,3.7-2.1L40.4,158z"/>
		</g>
		
			<linearGradient id="SVGID_3_" gradientUnits="userSpaceOnUse" x1="23.4679" y1="94.0321" x2="53.2" y2="64.3" gradientTransform="matrix(1 0 0 -1 0 260)">
			<stop  offset="0" style="stop-color:#F8FCFD;stop-opacity:0.5"/>
			<stop  offset="1" style="stop-color:#F8FCFD;stop-opacity:0.2"/>
		</linearGradient>
		<path class="st15" d="M22.3,167.7c0,0-2.2,1-5.3,5.2l37.5,21.5l5.4-5.4L22.3,167.7z"/>
		<path class="st11" d="M70.6,181.3c-5.1,2.5-12.4,6.3-15.3,9.2c-3.9,4-5.3,8-5.3,8l25.7-14.2v-5.4C74.5,179.4,72,180.6,70.6,181.3z
			"/>
		
			<linearGradient id="SVGID_4_" gradientUnits="userSpaceOnUse" x1="56.4369" y1="57.7165" x2="71.3843" y2="83.606" gradientTransform="matrix(1 0 0 -1 0 260)">
			<stop  offset="0" style="stop-color:#F8FCFD;stop-opacity:0.5"/>
			<stop  offset="1" style="stop-color:#F8FCFD;stop-opacity:0.2"/>
		</linearGradient>
		<path class="st16" d="M70.6,181.3c-5.1,2.5-12.4,6.3-15.3,9.2c-3.9,4-5.3,8-5.3,8l25.7-14.2v-5.4C74.5,179.4,72,180.6,70.6,181.3z
			"/>
		<g>
			<path class="st4" d="M46.4,210.1c0-1.2,0.7-2.5,1.6-3l6.8-3.9c0.3-0.1,0.5-0.2,0.7-0.2c-0.2-0.7-0.8-0.9-1.5-0.5l-6.8,3.9
				c-0.9,0.5-1.6,1.9-1.6,3L44.8,222c0,0.8,0.4,1.3,0.9,1.4c-0.1-0.2-0.1-0.4-0.1-0.7L46.4,210.1z"/>
			<path class="st1" d="M46.4,223.2l7.6-4.5c0.9-0.5,1.6-1.9,1.6-3v-12c0-0.3,0-0.5-0.1-0.7c-0.2,0-0.5,0-0.7,0.2l-6.8,3.9
				c-0.9,0.5-1.6,1.9-1.6,3l-0.8,12.5c0,0.3,0,0.5,0.1,0.7C45.9,223.4,46.1,223.3,46.4,223.2z"/>
		</g>
		<polygon class="st4" points="41,231.6 5.2,211 5.2,208.6 41,229.2 		"/>
		<g>
			<path class="st1" d="M35.2,228L25,222.1L10.9,214c0,0,0.1,0.6,0.3,1.6L35,229.3C35.1,228.5,35.2,228,35.2,228z"/>
			<path class="st1" d="M11.4,216.9c0.1,0.8,0.3,1.7,0.4,2.6l22.6,13c0.1-0.7,0.3-1.4,0.4-2.1L11.4,216.9z"/>
			<path class="st1" d="M12.3,222.6c0,0.1,0,0.1,0,0.2l21.5,12.4c0-0.1,0-0.1,0-0.1c0.1-0.4,0.2-0.9,0.3-1.5L12,220.8
				C12.1,221.6,12.2,222.2,12.3,222.6z"/>
			<path class="st1" d="M15.5,227.4c1.4,0.9,5.2,3.1,7.6,4.4c2.3,1.4,6.2,3.7,7.6,4.3c1.4,0.7,2.3,0.8,2.8,0.1l-20.7-12
				C13.2,225.5,14.1,226.4,15.5,227.4z"/>
			<path class="st5" d="M12,220.8l22.1,12.8c0.1-0.3,0.1-0.7,0.2-1.1l-22.6-13C11.9,220,11.9,220.4,12,220.8z"/>
			<path class="st5" d="M35,229.3l-23.8-13.7c0.1,0.4,0.1,0.8,0.2,1.3l23.4,13.5C34.9,230,34.9,229.7,35,229.3z"/>
			<path class="st5" d="M12.7,224.3l20.7,12c0.2-0.2,0.3-0.5,0.4-1l-21.5-12.4C12.4,223.4,12.5,223.8,12.7,224.3z"/>
		</g>
		<path class="st2" d="M21.2,221.7c0,1.2,0.7,2.6,1.6,3.1s1.6,0,1.6-1.2s-0.7-2.6-1.6-3.1C21.9,219.9,21.2,220.5,21.2,221.7z"/>
		<g>
			<path class="st1" d="M7,202.8c0,1.2,0.7,2.5,1.6,3l29.6,16.7c0.9,0.5,1.6,0,1.6-1.2l1.1-9.9l-32.8-19L7,202.8z"/>
			<path class="st4" d="M39.6,205.5L10,188.9c-0.9-0.5-1.6,0-1.6,1.2l-0.3,2.3l32.7,18.9l0.3-2.7C41.2,207.4,40.4,206,39.6,205.5z"
				/>
		</g>
	</g>
	<g>
		<path class="st1" d="M88.3,142.1c0,0,43.4-64.1,43-88.7C130.8,28.9,110.7,9,86.3,9H73.1L75,142.1H88.3z"/>
		<ellipse transform="matrix(0.7059 -0.7083 0.7083 0.7059 -16.1856 67.7731)" class="st2" cx="73.5" cy="53.4" rx="19.8" ry="20"/>
		<path class="st3" d="M72.8,9c-24.5,0-44,19.9-43.7,44.4s45.7,88.7,45.7,88.7s43.4-64.1,43-88.7C117.5,28.9,97.4,9,72.8,9z M74,70
			c-9.2,0-16.8-7.5-17-16.6s7.2-16.6,16.4-16.6s16.8,7.5,17,16.6C90.4,62.6,83,70,74,70z"/>
	</g>
</g>
<g>
	<path class="st17" d="M120.9,152.8l33.1-19.1c1-0.6,1.6-0.1,1.4,1l-0.9,4.5c-0.2,1.1-1.3,2.6-2.3,3.1l-33.1,19.1
		c-1,0.6-1.6,0.1-1.4-1l0.9-4.5C118.9,154.8,119.9,153.3,120.9,152.8"/>
	<path class="st18" d="M109.9,166.8c0-4.1,3.7-9.6,8.2-12.4l0,0c-3.5,2.2-6.5,6.9-6.8,10.9l0.5,0c0.1-4,2.8-8.7,6.2-10.9l0,0
		c-2.8,1.8-5,6.4-5,10.5L109.9,166.8z"/>
	<polygon class="st18" points="105.5,161.8 108.7,159.9 113.1,165 109.9,166.8 	"/>
	<path class="st2" d="M153.5,138.6c0,0.4-0.1,0.8-0.4,1.2c-0.3,0.4-0.6,0.7-1,0.9l-3.1,1.8v-0.7l3.1-1.8c0.2-0.1,0.4-0.3,0.5-0.4
		c0.2-0.2,0.2-0.4,0.2-0.6c0-0.2-0.1-0.3-0.3-0.3c-0.1,0-0.3,0.1-0.5,0.2l-1.9,1.1c-0.4,0.2-0.6,0.3-0.9,0.2
		c-0.3-0.1-0.4-0.3-0.4-0.6s0.1-0.7,0.4-1.1c0.2-0.3,0.5-0.6,0.9-0.8l3.1-1.8v0.7l-3.1,1.8c-0.1,0.1-0.3,0.2-0.4,0.3
		s-0.1,0.3-0.1,0.4c0,0.1,0,0.2,0.1,0.2s0.2,0,0.4-0.1l1.9-1.1c0.4-0.2,0.7-0.3,1-0.2C153.3,138,153.5,138.2,153.5,138.6
		 M148.1,142.6c0,0.3-0.1,0.4-0.3,0.5c-0.1,0.1-0.3,0.1-0.4,0l-2.6-1.1v2.9l-0.7,0.4v-3.7c0-0.1,0-0.2,0.1-0.3
		c0-0.1,0.1-0.2,0.2-0.2c0.1-0.1,0.3-0.1,0.4,0l2.6,1.1v-2.9l0.7-0.4V142.6L148.1,142.6z M143.7,145.5l-0.9,0.5l-0.7-0.8l-1.9,1.1
		l0.4-1l1.1-0.6l-0.7-0.8l-1.9,4.1l-0.9,0.5l2.2-5c0-0.1,0.1-0.3,0.2-0.4c0.1-0.2,0.2-0.3,0.3-0.3c0.1-0.1,0.2-0.1,0.3-0.1
		c0.1,0,0.2,0.1,0.2,0.1L143.7,145.5z M137.7,148.9l-1.1,0.6l-1.2-0.5l-1.5,0.9v-0.7l1.9-1.1c0.3-0.2,0.5-0.3,0.7-0.6
		c0.2-0.3,0.3-0.5,0.3-0.8c0-0.5-0.3-0.6-1-0.2l-2.4,1.4v3.4l-0.7,0.4v-4.1l3-1.7c0.5-0.3,1-0.4,1.3-0.4c0.4,0,0.6,0.3,0.6,0.8
		c0,0.3-0.1,0.7-0.3,1.1s-0.5,0.7-0.8,1L137.7,148.9z M132.4,148.6l-1.6,0.9v3.4l-0.7,0.4V150l-1.6,0.9v-0.7l3.9-2.3L132.4,148.6
		L132.4,148.6z M127.8,153l-2.2,1.3v-0.7l2.2-1.3V153z M125.3,152l-2.4,5.1c-0.2,0.4-0.3,0.6-0.5,0.7c-0.1,0.1-0.3,0-0.4-0.2
		l-2.3-2.5l0.9-0.5l1.9,2l1.9-4.1L125.3,152z"/>
	<path class="st2" d="M153.9,134.5c-0.1,0.1-0.2,0.1-0.3,0.2c-0.1,0.1-0.1,0.2-0.1,0.3c0,0.1,0,0.2,0.1,0.2c0.1,0,0.2,0,0.3-0.1
		c0.1-0.1,0.2-0.1,0.3-0.2c0.1-0.1,0.1-0.2,0.1-0.3s0-0.2-0.1-0.2C154.1,134.4,154,134.5,153.9,134.5 M153.9,134.4
		c0.1,0,0.1-0.1,0.2-0.1c0.1,0,0.1,0,0.2,0.1c0,0,0,0.1,0,0.2c0,0.1,0,0.2,0,0.2c0,0.1-0.1,0.2-0.2,0.3s-0.1,0.1-0.2,0.2
		c-0.1,0-0.1,0.1-0.2,0.1c-0.1,0-0.1,0-0.2-0.1c0,0,0-0.1,0-0.2s0-0.2,0-0.2c0-0.1,0.1-0.2,0.2-0.3
		C153.8,134.5,153.8,134.5,153.9,134.4z M153.8,134.8v0.1V134.8c0.1,0.1,0.2,0,0.2,0c0,0,0,0,0-0.1c0,0,0,0,0,0
		C154,134.7,154,134.7,153.8,134.8C153.9,134.7,153.8,134.8,153.8,134.8z M153.8,135.2L153.8,135.2l-0.1-0.4l0.2-0.1
		c0,0,0.1-0.1,0.1,0c0,0,0,0,0,0c0,0,0,0,0,0.1c0,0,0,0.1,0,0.1c0,0,0,0.1-0.1,0.1c0,0,0,0,0,0s0,0,0,0l0,0.1l-0.1,0.1l0,0
		c0,0,0-0.1-0.1-0.1c0-0.1,0,0,0,0l0,0L153.8,135.2L153.8,135.2z"/>
	<path class="st19" d="M152.3,143.8l0.3-0.2v0c0,0,0-0.1,0-0.1c0,0,0,0-0.1,0C152.4,143.6,152.3,143.7,152.3,143.8 M152.9,143.7
		l-0.6,0.3c0,0.1,0,0.1,0,0.1c0,0,0.1,0,0.2,0c0.1,0,0.2-0.1,0.3-0.3l0,0.3c-0.1,0.1-0.2,0.2-0.3,0.3c-0.1,0.1-0.2,0.1-0.3,0.1
		c-0.1,0-0.1-0.1-0.1-0.3c0-0.1,0-0.3,0.1-0.4s0.2-0.3,0.4-0.4c0.1-0.1,0.2-0.1,0.3-0.1c0.1,0,0.1,0.1,0.1,0.2
		C152.9,143.6,152.9,143.6,152.9,143.7z M151.5,144l0,0.3c0,0-0.1,0-0.1,0c0,0,0,0-0.1,0.1c-0.1,0.1-0.2,0.1-0.2,0.2
		s-0.1,0.2-0.1,0.2s0,0.1,0.1,0.1c0,0,0.1,0,0.2,0c0.1,0,0.2-0.1,0.3-0.2l0,0.3c-0.1,0.1-0.2,0.1-0.3,0.2c-0.1,0.1-0.2,0.1-0.3,0.1
		s-0.1-0.1-0.1-0.2c0-0.1,0-0.3,0.2-0.5s0.3-0.3,0.4-0.4C151.3,144,151.4,144,151.5,144z M149.5,145.1l0,0.1
		c0.1-0.1,0.2-0.2,0.3-0.3c0.1,0,0.1-0.1,0.2,0c0,0,0.1,0.1,0.1,0.2c0,0,0,0,0,0.1l-0.1,0.6l-0.3,0.2l0.1-0.6v0c0-0.1,0-0.1-0.1-0.1
		c-0.1,0-0.1,0.1-0.2,0.3l-0.1,0.6l-0.3,0.2l0.1-1C149.2,145.3,149.5,145.1,149.5,145.1z M148,146.3l0.3-0.2v0c0,0,0-0.1,0-0.1
		c0,0,0,0-0.1,0C148.1,146.1,148,146.2,148,146.3z M148.5,146.2l-0.6,0.3c0,0.1,0,0.1,0,0.1c0,0,0.1,0,0.2,0c0.1,0,0.2-0.1,0.3-0.3
		l0,0.3c-0.1,0.1-0.2,0.2-0.3,0.3c-0.1,0.1-0.2,0.1-0.3,0.1c-0.1,0-0.1-0.1-0.1-0.3s0-0.3,0.1-0.4s0.2-0.3,0.4-0.4
		c0.1-0.1,0.2-0.1,0.3-0.1s0.1,0.1,0.1,0.2C148.6,146.1,148.6,146.1,148.5,146.2z M147.2,146l-0.2,1.5l-0.3,0.2l0.2-1.5L147.2,146z
		 M146.3,146.5l-0.2,1.5l-0.3,0.2l0.2-1.5L146.3,146.5z M144.7,148.2l0.3-0.2v0c0,0,0-0.1,0-0.1c0,0,0,0-0.1,0
		C144.8,148,144.7,148.1,144.7,148.2z M145.2,148.1l-0.6,0.3c0,0.1,0,0.1,0,0.1c0,0,0.1,0,0.2,0c0.1,0,0.2-0.1,0.3-0.3l0,0.3
		c-0.1,0.1-0.2,0.2-0.3,0.3c-0.1,0.1-0.2,0.1-0.3,0.1c-0.1,0-0.1-0.1-0.1-0.3c0-0.1,0-0.3,0.1-0.4c0.1-0.2,0.2-0.3,0.4-0.4
		c0.1-0.1,0.2-0.1,0.3-0.1c0.1,0,0.1,0.1,0.1,0.2C145.3,148,145.3,148,145.2,148.1z M143.9,148.4l0,0.3c0,0-0.1,0-0.1,0
		c0,0,0,0-0.1,0.1c-0.1,0.1-0.2,0.1-0.2,0.2s-0.1,0.2-0.1,0.2c0,0.1,0,0.1,0.1,0.1c0,0,0.1,0,0.2,0c0.1,0,0.2-0.1,0.3-0.2l0,0.3
		c-0.1,0.1-0.2,0.1-0.3,0.2c-0.1,0.1-0.2,0.1-0.3,0.1s-0.1-0.1-0.1-0.2c0-0.1,0-0.3,0.2-0.5c0.1-0.2,0.3-0.3,0.4-0.4
		C143.7,148.4,143.8,148.4,143.9,148.4z M142.6,149.1l-0.4,0.7l0.3,0.3l-0.3,0.2l-0.1-0.2l-0.2,0.4l-0.3,0.2l0.4-0.7l-0.3-0.3
		l0.3-0.2l0.1,0.2l0.2-0.4L142.6,149.1L142.6,149.1z M141,149.5l0,0.3l-0.6,0.3l0,0.4l0.5-0.3l0,0.3l-0.5,0.3l0,0.4l0.7-0.4l0,0.3
		l-1,0.6l0.2-1.5L141,149.5L141,149.5z M138.5,152.6c0,0,0,0-0.1,0l-0.1,0c0,0-0.1,0-0.1,0.1c0,0.1-0.1,0.1-0.1,0.1
		c0,0.1,0.1,0.1,0.2,0C138.4,152.7,138.4,152.7,138.5,152.6C138.5,152.6,138.5,152.6,138.5,152.6z M138.4,152
		c0.1-0.1,0.1-0.2,0.1-0.3c0,0,0-0.1,0-0.1s0,0-0.1,0c-0.1,0.1-0.1,0.2-0.1,0.3C138.3,152.1,138.3,152.1,138.4,152z M138.9,151.2
		l0,0.2l-0.1,0.1c0,0,0,0.1,0,0.1c0,0.1,0,0.2-0.1,0.3c-0.1,0.1-0.2,0.2-0.3,0.3c-0.1,0-0.1,0.1-0.1,0.1c0,0,0,0.1,0,0.1
		c0,0,0,0,0,0c0,0,0.1,0,0.2-0.1c0.1,0,0.2-0.1,0.3-0.1c0,0,0.1,0.1,0.1,0.1c0,0.2-0.2,0.4-0.5,0.6c-0.1,0.1-0.3,0.1-0.3,0.1
		c-0.1,0-0.1,0-0.1-0.1c0-0.1,0.1-0.2,0.2-0.4c-0.1,0-0.1,0-0.1-0.1c0-0.1,0.1-0.2,0.2-0.3c-0.1,0-0.2,0-0.2-0.2
		c0-0.1,0-0.2,0.1-0.3s0.2-0.2,0.3-0.3L138.9,151.2L138.9,151.2z M136.9,152.4l0,0.1c0.1-0.1,0.2-0.2,0.3-0.3c0.1,0,0.1-0.1,0.2,0
		c0,0,0.1,0.1,0.1,0.2c0,0,0,0,0,0.1l-0.1,0.6l-0.3,0.2l0.1-0.6v0c0-0.1,0-0.1-0.1-0.1c-0.1,0-0.1,0.1-0.2,0.3l-0.1,0.6l-0.3,0.2
		l0.1-1C136.6,152.6,136.9,152.4,136.9,152.4z M135.9,153l-0.1,1l-0.3,0.2l0.1-1L135.9,153z M135.7,152.8c0,0,0-0.1,0-0.1
		s0.1-0.1,0.1-0.1c0,0,0.1,0,0.1,0s0,0,0,0.1c0,0,0,0.1,0,0.1c0,0-0.1,0.1-0.1,0.1C135.8,152.9,135.8,152.9,135.7,152.8
		C135.7,152.9,135.7,152.9,135.7,152.8z M135.1,153.4l-0.5,1.2l-0.2,0.1l-0.2-0.8l0.3-0.2l0.1,0.4l0.2-0.6L135.1,153.4z
		 M133.7,154.3l-0.1,1l-0.3,0.2l0.1-1L133.7,154.3z M133.4,154.1c0,0,0-0.1,0-0.1c0,0,0.1-0.1,0.1-0.1c0,0,0.1,0,0.1,0s0,0,0,0.1
		c0,0,0,0.1,0,0.1s-0.1,0.1-0.1,0.1C133.5,154.2,133.5,154.2,133.4,154.1C133.4,154.2,133.4,154.2,133.4,154.1z M132.5,154.9l0,0.1
		l0,0c0.1-0.1,0.2-0.2,0.2-0.3c0,0,0.1,0,0.2,0l-0.1,0.3c0,0-0.1,0-0.1,0c0,0-0.1,0.1-0.1,0.1c0,0.1,0,0.1,0,0.1l-0.1,0.6l-0.3,0.2
		l0.1-1L132.5,154.9z M130.7,155.7l-0.1,1l0.3-0.2c0.1-0.1,0.3-0.2,0.3-0.3c0.1-0.1,0.1-0.3,0.1-0.4c0-0.1,0-0.2-0.1-0.2
		c-0.1,0-0.2,0-0.3,0.1L130.7,155.7L130.7,155.7z M130.4,155.7l0.5-0.3c0.2-0.1,0.4-0.2,0.5-0.1c0.1,0.1,0.2,0.2,0.2,0.4
		c0,0.2-0.1,0.4-0.2,0.6c-0.1,0.2-0.3,0.4-0.5,0.5l-0.7,0.4L130.4,155.7z"/>
	
		<linearGradient id="SVGID_5_" gradientUnits="userSpaceOnUse" x1="121.176" y1="99.284" x2="127.1372" y2="105.2452" gradientTransform="matrix(1 -0.5774 0 -1 -0.5992 333.6476)">
		<stop  offset="0" style="stop-color:#FFFFFF"/>
		<stop  offset="0.66" style="stop-color:#1B437C"/>
	</linearGradient>
	<polygon class="st20" points="117.7,163.2 117.7,163 117.7,163 129.4,156.2 129.4,156.4 	"/>
	
		<linearGradient id="SVGID_6_" gradientUnits="userSpaceOnUse" x1="121.164" y1="98.6951" x2="127.0771" y2="104.6082" gradientTransform="matrix(1 -0.5774 0 -1 -0.5992 333.6476)">
		<stop  offset="0" style="stop-color:#FFFFFF"/>
		<stop  offset="0.66" style="stop-color:#1B437C"/>
	</linearGradient>
	<polygon class="st21" points="129.4,156.9 129.3,157.1 117.7,163.8 117.7,163.6 	"/>
	
		<linearGradient id="SVGID_7_" gradientUnits="userSpaceOnUse" x1="121.14" y1="98.1182" x2="127.0145" y2="103.9927" gradientTransform="matrix(1 -0.5774 0 -1 -0.5992 333.6476)">
		<stop  offset="0" style="stop-color:#FFFFFF"/>
		<stop  offset="0.66" style="stop-color:#1B437C"/>
	</linearGradient>
	<polygon class="st22" points="129.3,157.5 129.2,157.7 117.7,164.4 117.7,164.2 	"/>
</g>
</svg>
